<?xml version="1.0" encoding="UTF-8" standalone="no"?>
<!DOCTYPE svg PUBLIC "-//W3C//DTD SVG 1.1//EN"
 "http://www.w3.org/Graphics/SVG/1.1/DTD/svg11.dtd">
<!-- Generated by graphviz version 2.26.3 (20100126.1600)
 -->
<!-- Title: G Pages: 1 -->
<svg width="1048pt" height="1641pt"
 viewBox="0.00 0.00 1048.00 1641.46" xmlns="http://www.w3.org/2000/svg" xmlns:xlink="http://www.w3.org/1999/xlink">
<g id="graph1" class="graph" transform="scale(1 1) rotate(0) translate(4 1637.46)">
<title>G</title>
<polygon fill="white" stroke="white" points="-4,5 -4,-1637.46 1045,-1637.46 1045,5 -4,5"/>
<g id="graph2" class="cluster"><title>cluster_global</title>
<polyline fill="none" stroke="gray" points="446,-687.46 1020,-687.46 "/>
<path fill="none" stroke="gray" d="M1020,-687.46C1026,-687.46 1032,-693.46 1032,-699.46"/>
<polyline fill="none" stroke="gray" points="1032,-699.46 1032,-1613.46 "/>
<path fill="none" stroke="gray" d="M1032,-1613.46C1032,-1619.46 1026,-1625.46 1020,-1625.46"/>
<polyline fill="none" stroke="gray" points="1020,-1625.46 446,-1625.46 "/>
<path fill="none" stroke="gray" d="M446,-1625.46C440,-1625.46 434,-1619.46 434,-1613.46"/>
<polyline fill="none" stroke="gray" points="434,-1613.46 434,-699.46 "/>
<path fill="none" stroke="gray" d="M434,-699.46C434,-693.46 440,-687.46 446,-687.46"/>
<text text-anchor="middle" x="733" y="-1611.56" font-family="Times Roman,serif" font-size="11.00" fill="gray">global</text>
</g>
<!-- \\ProjectArrayValidator -->
<g id="node2" class="node"><title>\\ProjectArrayValidator</title>
<a xlink:href="validator.ProjectArrayValidator.class.html" xlink:title="ProjectArrayValidator" target="_parent">
<polygon fill="none" stroke="black" points="993,-1487.46 835,-1487.46 835,-1451.46 993,-1451.46 993,-1487.46"/>
<text text-anchor="middle" x="914" y="-1466.56" font-family="Courier,monospace" font-size="11.00">ProjectArrayValidator</text>
</a>
</g>
<!-- \\AgaviValidator -->
<g id="node21" class="node"><title>\\AgaviValidator</title>
<ellipse fill="none" stroke="black" cx="532" cy="-661.46" rx="85.0596" ry="18.3848"/>
<text text-anchor="middle" x="532" y="-657.86" font-family="Times Roman,serif" font-size="14.00" fill="gray">\AgaviValidator</text>
</g>
<!-- \\ProjectArrayValidator&#45;&gt;\\AgaviValidator -->
<g id="edge3" class="edge"><title>\\ProjectArrayValidator&#45;&gt;\\AgaviValidator</title>
<path fill="none" stroke="black" d="M834.791,-1462.65C823.042,-1458.33 812.161,-1451.91 804,-1442.46 693.264,-1314.23 850.9,-804.155 732,-683.46 700.113,-651.092 648.997,-645.937 606.425,-648.697"/>
<polygon fill="none" stroke="black" points="606.053,-645.215 596.365,-649.503 606.613,-652.193 606.053,-645.215"/>
</g>
<!-- \\CouchDbDatabase -->
<g id="node3" class="node"><title>\\CouchDbDatabase</title>
<a xlink:href="database.CouchDbDatabase.class.html" xlink:title="CouchDbDatabase" target="_parent">
<polygon fill="none" stroke="black" points="973,-1325.46 855,-1325.46 855,-1289.46 973,-1289.46 973,-1325.46"/>
<text text-anchor="middle" x="914" y="-1304.56" font-family="Courier,monospace" font-size="11.00">CouchDbDatabase</text>
</a>
</g>
<!-- \\AgaviDatabase -->
<g id="node23" class="node"><title>\\AgaviDatabase</title>
<ellipse fill="none" stroke="black" cx="532" cy="-607.46" rx="87.889" ry="18.3848"/>
<text text-anchor="middle" x="532" y="-603.86" font-family="Times Roman,serif" font-size="14.00" fill="gray">\AgaviDatabase</text>
</g>
<!-- \\CouchDbDatabase&#45;&gt;\\AgaviDatabase -->
<g id="edge5" class="edge"><title>\\CouchDbDatabase&#45;&gt;\\AgaviDatabase</title>
<path fill="none" stroke="black" d="M854.835,-1305.9C836.01,-1302.37 816.78,-1295.02 804,-1280.46 613.392,-1063.38 933.893,-841.091 732,-634.46 702.203,-603.965 655.544,-596.36 614.786,-596.775"/>
<polygon fill="none" stroke="black" points="614.469,-593.282 604.564,-597.044 614.653,-600.28 614.469,-593.282"/>
</g>
<!-- \\ElasticSearchDatabase -->
<g id="node4" class="node"><title>\\ElasticSearchDatabase</title>
<a xlink:href="database.ElasticSearchDatabase.class.html" xlink:title="ElasticSearchDatabase" target="_parent">
<polygon fill="none" stroke="black" points="993,-1379.46 835,-1379.46 835,-1343.46 993,-1343.46 993,-1379.46"/>
<text text-anchor="middle" x="914" y="-1358.56" font-family="Courier,monospace" font-size="11.00">ElasticSearchDatabase</text>
</a>
</g>
<!-- \\ElasticSearchDatabase&#45;&gt;\\AgaviDatabase -->
<g id="edge7" class="edge"><title>\\ElasticSearchDatabase&#45;&gt;\\AgaviDatabase</title>
<path fill="none" stroke="black" d="M834.854,-1354.6C823.098,-1350.29 812.199,-1343.88 804,-1334.46 701.324,-1216.52 840.809,-746.773 732,-634.46 702.221,-603.722 655.327,-596.17 614.43,-596.676"/>
<polygon fill="none" stroke="black" points="614.071,-593.185 604.175,-596.969 614.271,-600.182 614.071,-593.185"/>
</g>
<!-- \\IDatabaseSetup -->
<g id="node5" class="node"><title>\\IDatabaseSetup</title>
<a xlink:href="database.IDatabaseSetup.iface.html" xlink:title="IDatabaseSetup" target="_parent">
<polygon fill="none" stroke="black" points="969,-1433.46 859,-1433.46 859,-1397.46 969,-1397.46 969,-1433.46"/>
<text text-anchor="middle" x="914" y="-1412.56" font-family="Courier,monospace" font-size="11.00">IDatabaseSetup</text>
</a>
</g>
<!-- \\UserIsItemOwnerAssertion -->
<g id="node6" class="node"><title>\\UserIsItemOwnerAssertion</title>
<a xlink:href="user.assertions.UserIsItemOwnerAssertion.class.html" xlink:title="UserIsItemOwnerAssertion" target="_parent">
<polygon fill="none" stroke="black" points="1003,-1271.46 825,-1271.46 825,-1235.46 1003,-1235.46 1003,-1271.46"/>
<text text-anchor="middle" x="914" y="-1250.56" font-family="Courier,monospace" font-size="11.00">UserIsItemOwnerAssertion</text>
</a>
</g>
<!-- \\Zend_Acl_Assert_Interface -->
<g id="node45" class="node"><title>\\Zend_Acl_Assert_Interface</title>
<ellipse fill="none" stroke="black" cx="532" cy="-553.46" rx="147.785" ry="18.3848"/>
<text text-anchor="middle" x="532" y="-549.86" font-family="Times Roman,serif" font-size="14.00" fill="gray">\\Zend_Acl_Assert_Interface</text>
</g>
<!-- \\UserIsItemOwnerAssertion&#45;&gt;\\Zend_Acl_Assert_Interface -->
<g id="edge31" class="edge"><title>\\UserIsItemOwnerAssertion&#45;&gt;\\Zend_Acl_Assert_Interface</title>
<path fill="none" stroke="black" stroke-dasharray="1,5" d="M824.376,-1241.96C816.705,-1238.03 809.709,-1232.96 804,-1226.46 613.392,-1009.38 933.893,-787.091 732,-580.46 719.514,-567.681 704.067,-558.922 687.334,-553.088"/>
<polygon fill="none" stroke="black" points="687.934,-549.609 677.346,-549.983 685.856,-556.294 687.934,-549.609"/>
</g>
<!-- \\ProjectZendAclSecurityUser -->
<g id="node7" class="node"><title>\\ProjectZendAclSecurityUser</title>
<a xlink:href="user.ProjectZendAclSecurityUser.class.html" xlink:title="ProjectZendAclSecurityUser" target="_parent">
<polygon fill="none" stroke="black" points="1010,-1217.46 818,-1217.46 818,-1181.46 1010,-1181.46 1010,-1217.46"/>
<text text-anchor="middle" x="914" y="-1196.56" font-family="Courier,monospace" font-size="11.00">ProjectZendAclSecurityUser</text>
</a>
</g>
<!-- \\AgaviSecurityUser -->
<g id="node26" class="node"><title>\\AgaviSecurityUser</title>
<ellipse fill="none" stroke="black" cx="532" cy="-499.46" rx="104.151" ry="18.3848"/>
<text text-anchor="middle" x="532" y="-495.86" font-family="Times Roman,serif" font-size="14.00" fill="gray">\AgaviSecurityUser</text>
</g>
<!-- \\ProjectZendAclSecurityUser&#45;&gt;\\AgaviSecurityUser -->
<g id="edge9" class="edge"><title>\\ProjectZendAclSecurityUser&#45;&gt;\\AgaviSecurityUser</title>
<path fill="none" stroke="black" d="M817.769,-1184.17C812.683,-1180.91 808.022,-1177.04 804,-1172.46 613.392,-955.377 933.893,-733.091 732,-526.46 704.971,-498.797 664.066,-489.97 626.276,-488.879"/>
<polygon fill="none" stroke="black" points="626.272,-485.379 616.232,-488.764 626.192,-492.378 626.272,-485.379"/>
</g>
<!-- \\Zend_Acl_Role_Interface -->
<g id="node47" class="node"><title>\\Zend_Acl_Role_Interface</title>
<ellipse fill="none" stroke="black" cx="532" cy="-445.46" rx="137.179" ry="18.3848"/>
<text text-anchor="middle" x="532" y="-441.86" font-family="Times Roman,serif" font-size="14.00" fill="gray">\\Zend_Acl_Role_Interface</text>
</g>
<!-- \\ProjectZendAclSecurityUser&#45;&gt;\\Zend_Acl_Role_Interface -->
<g id="edge33" class="edge"><title>\\ProjectZendAclSecurityUser&#45;&gt;\\Zend_Acl_Role_Interface</title>
<path fill="none" stroke="black" stroke-dasharray="1,5" d="M817.724,-1184.21C812.649,-1180.94 808.003,-1177.06 804,-1172.46 701.324,-1054.52 840.809,-584.773 732,-472.46 713.517,-453.382 688.44,-443.236 662.297,-438.404"/>
<polygon fill="none" stroke="black" points="662.662,-434.919 652.236,-436.805 661.563,-441.832 662.662,-434.919"/>
</g>
<!-- \\ProjectBaseView -->
<g id="node8" class="node"><title>\\ProjectBaseView</title>
<a xlink:href="view.ProjectBaseView.class.html" xlink:title="ProjectBaseView" target="_parent">
<polygon fill="none" stroke="black" points="973,-1163.46 855,-1163.46 855,-1127.46 973,-1127.46 973,-1163.46"/>
<text text-anchor="middle" x="914" y="-1142.56" font-family="Courier,monospace" font-size="11.00">ProjectBaseView</text>
</a>
</g>
<!-- \\AgaviView -->
<g id="node28" class="node"><title>\\AgaviView</title>
<ellipse fill="none" stroke="black" cx="532" cy="-391.46" rx="65.9683" ry="18.3848"/>
<text text-anchor="middle" x="532" y="-387.86" font-family="Times Roman,serif" font-size="14.00" fill="gray">\AgaviView</text>
</g>
<!-- \\ProjectBaseView&#45;&gt;\\AgaviView -->
<g id="edge11" class="edge"><title>\\ProjectBaseView&#45;&gt;\\AgaviView</title>
<path fill="none" stroke="black" d="M854.764,-1143.97C835.934,-1140.43 816.718,-1133.07 804,-1118.46 701.324,-1000.52 840.809,-530.773 732,-418.46 698.413,-383.792 643.053,-378.618 599.083,-381.234"/>
<polygon fill="none" stroke="black" points="598.745,-377.749 589.03,-381.977 599.261,-384.73 598.745,-377.749"/>
</g>
<!-- \\ProjectBaseModel -->
<g id="node9" class="node"><title>\\ProjectBaseModel</title>
<a xlink:href="model.ProjectBaseModel.class.html" xlink:title="ProjectBaseModel" target="_parent">
<polygon fill="none" stroke="black" points="976,-1055.46 852,-1055.46 852,-1019.46 976,-1019.46 976,-1055.46"/>
<text text-anchor="middle" x="914" y="-1034.56" font-family="Courier,monospace" font-size="11.00">ProjectBaseModel</text>
</a>
</g>
<!-- \\AgaviModel -->
<g id="node30" class="node"><title>\\AgaviModel</title>
<ellipse fill="none" stroke="black" cx="532" cy="-337.46" rx="70.2092" ry="18.3848"/>
<text text-anchor="middle" x="532" y="-333.86" font-family="Times Roman,serif" font-size="14.00" fill="gray">\AgaviModel</text>
</g>
<!-- \\ProjectBaseModel&#45;&gt;\\AgaviModel -->
<g id="edge13" class="edge"><title>\\ProjectBaseModel&#45;&gt;\\AgaviModel</title>
<path fill="none" stroke="black" d="M851.392,-1035.21C833.691,-1031.44 816.001,-1024.13 804,-1010.46 613.392,-793.377 933.893,-571.091 732,-364.46 699.017,-330.703 645.371,-324.995 601.939,-327.165"/>
<polygon fill="none" stroke="black" points="601.459,-323.689 591.706,-327.828 601.912,-330.674 601.459,-323.689"/>
</g>
<!-- \\ProjectBaseAction -->
<g id="node10" class="node"><title>\\ProjectBaseAction</title>
<a xlink:href="action.ProjectBaseAction.class.html" xlink:title="ProjectBaseAction" target="_parent">
<polygon fill="none" stroke="black" points="979,-1001.46 849,-1001.46 849,-965.46 979,-965.46 979,-1001.46"/>
<text text-anchor="middle" x="914" y="-980.56" font-family="Courier,monospace" font-size="11.00">ProjectBaseAction</text>
</a>
</g>
<!-- \\AgaviAction -->
<g id="node32" class="node"><title>\\AgaviAction</title>
<ellipse fill="none" stroke="black" cx="532" cy="-283.46" rx="72.832" ry="18.3848"/>
<text text-anchor="middle" x="532" y="-279.86" font-family="Times Roman,serif" font-size="14.00" fill="gray">\AgaviAction</text>
</g>
<!-- \\ProjectBaseAction&#45;&gt;\\AgaviAction -->
<g id="edge15" class="edge"><title>\\ProjectBaseAction&#45;&gt;\\AgaviAction</title>
<path fill="none" stroke="black" d="M848.236,-980.503C831.608,-976.552 815.288,-969.316 804,-956.46 613.392,-739.377 933.893,-517.091 732,-310.46 699.47,-277.167 646.842,-271.158 603.736,-273.08"/>
<polygon fill="none" stroke="black" points="603.342,-269.597 593.568,-273.685 603.758,-276.585 603.342,-269.597"/>
</g>
<!-- \\ProjectResourceFilterConfig -->
<g id="node11" class="node"><title>\\ProjectResourceFilterConfig</title>
<a xlink:href="filter.ProjectResourceFilterConfig.class.html" xlink:title="ProjectResourceFilterConfig" target="_parent">
<polygon fill="none" stroke="black" points="1013,-1109.46 815,-1109.46 815,-1073.46 1013,-1073.46 1013,-1109.46"/>
<text text-anchor="middle" x="914" y="-1088.56" font-family="Courier,monospace" font-size="11.00">ProjectResourceFilterConfig</text>
</a>
</g>
<!-- \\ProjectResourceFilter -->
<g id="node12" class="node"><title>\\ProjectResourceFilter</title>
<a xlink:href="filter.ProjectResourceFilter.class.html" xlink:title="ProjectResourceFilter" target="_parent">
<polygon fill="none" stroke="black" points="993,-893.46 835,-893.46 835,-857.46 993,-857.46 993,-893.46"/>
<text text-anchor="middle" x="914" y="-872.56" font-family="Courier,monospace" font-size="11.00">ProjectResourceFilter</text>
</a>
</g>
<!-- \\AgaviFilter -->
<g id="node34" class="node"><title>\\AgaviFilter</title>
<ellipse fill="none" stroke="black" cx="532" cy="-229.46" rx="67.1751" ry="18.3848"/>
<text text-anchor="middle" x="532" y="-225.86" font-family="Times Roman,serif" font-size="14.00" fill="gray">\AgaviFilter</text>
</g>
<!-- \\ProjectResourceFilter&#45;&gt;\\AgaviFilter -->
<g id="edge17" class="edge"><title>\\ProjectResourceFilter&#45;&gt;\\AgaviFilter</title>
<path fill="none" stroke="black" d="M834.723,-868.364C823.057,-864.07 812.22,-857.728 804,-848.46 628.124,-650.17 918.181,-445.108 732,-256.46 698.207,-222.22 643.13,-216.942 599.322,-219.409"/>
<polygon fill="none" stroke="black" points="599.033,-215.92 589.305,-220.116 599.526,-222.903 599.033,-215.92"/>
</g>
<!-- \\AgaviIGlobalFilter -->
<g id="node49" class="node"><title>\\AgaviIGlobalFilter</title>
<ellipse fill="none" stroke="black" cx="532" cy="-175.46" rx="103.945" ry="18.3848"/>
<text text-anchor="middle" x="532" y="-171.86" font-family="Times Roman,serif" font-size="14.00" fill="gray">\\AgaviIGlobalFilter</text>
</g>
<!-- \\ProjectResourceFilter&#45;&gt;\\AgaviIGlobalFilter -->
<g id="edge35" class="edge"><title>\\ProjectResourceFilter&#45;&gt;\\AgaviIGlobalFilter</title>
<path fill="none" stroke="black" stroke-dasharray="1,5" d="M834.922,-868.536C823.158,-864.233 812.239,-857.843 804,-848.46 613.392,-631.377 933.893,-409.091 732,-202.46 704.858,-174.682 663.725,-165.897 625.805,-164.866"/>
<polygon fill="none" stroke="black" points="625.762,-161.365 615.729,-164.767 625.694,-168.365 625.762,-161.365"/>
</g>
<!-- \\ProjectExecutionFilter -->
<g id="node13" class="node"><title>\\ProjectExecutionFilter</title>
<a xlink:href="filter.ProjectExecutionFilter.class.html" xlink:title="ProjectExecutionFilter" target="_parent">
<polygon fill="none" stroke="black" points="996,-839.46 832,-839.46 832,-803.46 996,-803.46 996,-839.46"/>
<text text-anchor="middle" x="914" y="-818.56" font-family="Courier,monospace" font-size="11.00">ProjectExecutionFilter</text>
</a>
</g>
<!-- \\PhpDebugToolbarAgaviExecutionFilter -->
<g id="node36" class="node"><title>\\PhpDebugToolbarAgaviExecutionFilter</title>
<ellipse fill="none" stroke="black" cx="532" cy="-121.46" rx="200.111" ry="18.3848"/>
<text text-anchor="middle" x="532" y="-117.86" font-family="Times Roman,serif" font-size="14.00" fill="gray">\PhpDebugToolbarAgaviExecutionFilter</text>
</g>
<!-- \\ProjectExecutionFilter&#45;&gt;\\PhpDebugToolbarAgaviExecutionFilter -->
<g id="edge19" class="edge"><title>\\ProjectExecutionFilter&#45;&gt;\\PhpDebugToolbarAgaviExecutionFilter</title>
<path fill="none" stroke="black" d="M831.338,-813.148C820.951,-808.893 811.395,-802.883 804,-794.46 613.392,-577.377 933.893,-355.091 732,-148.46 727.26,-143.609 722.092,-139.337 716.59,-135.584"/>
<polygon fill="none" stroke="black" points="718.033,-132.362 707.681,-130.106 714.366,-138.325 718.033,-132.362"/>
</g>
<!-- \\ProjectResourcePacker -->
<g id="node14" class="node"><title>\\ProjectResourcePacker</title>
<a xlink:href="filter.ProjectResourcePacker.class.html" xlink:title="ProjectResourcePacker" target="_parent">
<polygon fill="none" stroke="black" points="993,-947.46 835,-947.46 835,-911.46 993,-911.46 993,-947.46"/>
<text text-anchor="middle" x="914" y="-926.56" font-family="Courier,monospace" font-size="11.00">ProjectResourcePacker</text>
</a>
</g>
<!-- \\ProjectLanguageRoutingCallback -->
<g id="node15" class="node"><title>\\ProjectLanguageRoutingCallback</title>
<a xlink:href="routing.ProjectLanguageRoutingCallback.class.html" xlink:title="ProjectLanguageRoutingCallback" target="_parent">
<polygon fill="none" stroke="black" points="1023,-785.46 805,-785.46 805,-749.46 1023,-749.46 1023,-785.46"/>
<text text-anchor="middle" x="914" y="-764.56" font-family="Courier,monospace" font-size="11.00">ProjectLanguageRoutingCallback</text>
</a>
</g>
<!-- \\AgaviRoutingCallback -->
<g id="node38" class="node"><title>\\AgaviRoutingCallback</title>
<ellipse fill="none" stroke="black" cx="532" cy="-67.4604" rx="120.208" ry="18.3848"/>
<text text-anchor="middle" x="532" y="-63.8604" font-family="Times Roman,serif" font-size="14.00" fill="gray">\AgaviRoutingCallback</text>
</g>
<!-- \\ProjectLanguageRoutingCallback&#45;&gt;\\AgaviRoutingCallback -->
<g id="edge21" class="edge"><title>\\ProjectLanguageRoutingCallback&#45;&gt;\\AgaviRoutingCallback</title>
<path fill="none" stroke="black" d="M813.452,-749.173C810.03,-746.603 806.854,-743.711 804,-740.46 613.392,-523.377 933.893,-301.091 732,-94.4604 708.256,-70.1594 673.804,-60.3942 640.163,-57.6396"/>
<polygon fill="none" stroke="black" points="639.957,-54.1204 629.762,-57.0014 639.529,-61.1073 639.957,-54.1204"/>
</g>
<!-- \\ProjectDataImportConfigHandler -->
<g id="node16" class="node"><title>\\ProjectDataImportConfigHandler</title>
<a xlink:href="config_handler.ProjectDataImportConfigHandler.class.html" xlink:title="ProjectDataImportConfigHandler" target="_parent">
<polygon fill="none" stroke="black" points="1023,-1541.46 805,-1541.46 805,-1505.46 1023,-1505.46 1023,-1541.46"/>
<text text-anchor="middle" x="914" y="-1520.56" font-family="Courier,monospace" font-size="11.00">ProjectDataImportConfigHandler</text>
</a>
</g>
<!-- \\ProjectBaseConfigHandler -->
<g id="node19" class="node"><title>\\ProjectBaseConfigHandler</title>
<a xlink:href="config_handler.ProjectBaseConfigHandler.class.html" xlink:title="«abstract»&lt;br/&gt;ProjectBaseConfigHandler" target="_parent">
<polygon fill="none" stroke="black" points="622,-1541.46 442,-1541.46 442,-1505.46 622,-1505.46 622,-1541.46"/>
<text text-anchor="start" x="498" y="-1528.89" font-family="Courier,monospace" font-size="11.00">«abstract»</text>
<text text-anchor="start" x="450.5" y="-1515.69" font-family="Courier,monospace" font-size="11.00">ProjectBaseConfigHandler</text>
</a>
</g>
<!-- \\ProjectDataImportConfigHandler&#45;&gt;\\ProjectBaseConfigHandler -->
<g id="edge23" class="edge"><title>\\ProjectDataImportConfigHandler&#45;&gt;\\ProjectBaseConfigHandler</title>
<path fill="none" stroke="black" d="M804.278,-1523.46C750.02,-1523.46 685.004,-1523.46 632.113,-1523.46"/>
<polygon fill="none" stroke="black" points="632.044,-1519.96 622.044,-1523.46 632.044,-1526.96 632.044,-1519.96"/>
</g>
<!-- \\ProjectDataSourceConfigHandler -->
<g id="node17" class="node"><title>\\ProjectDataSourceConfigHandler</title>
<a xlink:href="config_handler.ProjectDataSourceConfigHandler.class.html" xlink:title="ProjectDataSourceConfigHandler" target="_parent">
<polygon fill="none" stroke="black" points="1023,-1595.46 805,-1595.46 805,-1559.46 1023,-1559.46 1023,-1595.46"/>
<text text-anchor="middle" x="914" y="-1574.56" font-family="Courier,monospace" font-size="11.00">ProjectDataSourceConfigHandler</text>
</a>
</g>
<!-- \\ProjectDataSourceConfigHandler&#45;&gt;\\ProjectBaseConfigHandler -->
<g id="edge25" class="edge"><title>\\ProjectDataSourceConfigHandler&#45;&gt;\\ProjectBaseConfigHandler</title>
<path fill="none" stroke="black" d="M804.278,-1561.95C750.02,-1554.28 685.004,-1545.09 632.113,-1537.61"/>
<polygon fill="none" stroke="black" points="632.435,-1534.12 622.044,-1536.19 631.456,-1541.05 632.435,-1534.12"/>
</g>
<!-- \\ProjectAclConfigHandler -->
<g id="node18" class="node"><title>\\ProjectAclConfigHandler</title>
<a xlink:href="config_handler.ProjectAclConfigHandler.class.html" xlink:title="ProjectAclConfigHandler" target="_parent">
<polygon fill="none" stroke="black" points="1000,-731.46 828,-731.46 828,-695.46 1000,-695.46 1000,-731.46"/>
<text text-anchor="middle" x="914" y="-710.56" font-family="Courier,monospace" font-size="11.00">ProjectAclConfigHandler</text>
</a>
</g>
<!-- \\AgaviXmlConfigHandler -->
<g id="node42" class="node"><title>\\AgaviXmlConfigHandler</title>
<ellipse fill="none" stroke="black" cx="130" cy="-772.46" rx="130.108" ry="18.3848"/>
<text text-anchor="middle" x="130" y="-768.86" font-family="Times Roman,serif" font-size="14.00" fill="gray">\AgaviXmlConfigHandler</text>
</g>
<!-- \\ProjectAclConfigHandler&#45;&gt;\\AgaviXmlConfigHandler -->
<g id="edge27" class="edge"><title>\\ProjectAclConfigHandler&#45;&gt;\\AgaviXmlConfigHandler</title>
<path fill="none" stroke="black" d="M912.026,-695.392C900.847,-596.755 842.047,-124.7 732,-40.4604 661.417,13.5701 402.722,13.3884 332,-40.4604 214.912,-129.614 148.414,-620.012 133.321,-743.982"/>
<polygon fill="none" stroke="black" points="129.813,-743.838 132.095,-754.185 136.763,-744.674 129.813,-743.838"/>
</g>
<!-- \\ProjectBaseConfigHandler&#45;&gt;\\AgaviXmlConfigHandler -->
<g id="edge29" class="edge"><title>\\ProjectBaseConfigHandler&#45;&gt;\\AgaviXmlConfigHandler</title>
<path fill="none" stroke="black" d="M441.884,-1534.48C403.99,-1534.23 361.863,-1526.87 332,-1501.46 220.345,-1406.45 149.804,-922.693 133.588,-800.517"/>
<polygon fill="none" stroke="black" points="137.04,-799.923 132.268,-790.463 130.099,-800.833 137.04,-799.923"/>
</g>
</g>
</svg>
